<svg id="Layer_1" data-name="Layer 1" xmlns="http://www.w3.org/2000/svg" xmlns:xlink="http://www.w3.org/1999/xlink" viewBox="0 0 1924.7 553.75"><defs><style>.cls-1{fill:none;}.cls-2{clip-path:url(#clip-path);}.cls-3{fill:#f15a31;}.cls-4{fill:#a71c20;}.cls-5{fill:#231f20;}</style><clipPath id="clip-path" transform="translate(-37.65 -723.12)"><rect class="cls-1" x="37.65" y="723.13" width="1924.7" height="553.75"/></clipPath></defs><title>logo</title><g class="cls-2"><path class="cls-3" d="M323.93,1247.61c143.94,10.26,360.51,22.38,585.86,22.82-12.77.09-25.58.14-38.29.14-39.17,0-78.16-.35-116.68-1h-.29c-218.7-3.79-421.47-17.11-548-27.14-21.4-1.68-40.64-3.28-57.37-4.69-47.48-4.11-75.09-6.9-76.13-7l.45-4.41c1.06.13,28.64,2.93,76.12,7,.05,0,.2,0,.44,0,3.31.34,23.41,2.29,56.88,5.16l0-.42c1.21.12,38.46,3.63,101.22,8.39l6.06.45,9.66.71" transform="translate(-37.65 -723.12)"/><path class="cls-3" d="M1351.52,729q-18.88-.27-35.68-.15c-20.75.74-32.93,1.57-33.32,1.6l-.08-1.13c-34.92.8-56.41,2.31-56.91,2.34l-.33-4.4c17-.33,36.22-.45,57.09-.27,16.52.17,34.08.56,52.38,1.27,5.56.21,11.18.44,16.85.74" transform="translate(-37.65 -723.12)"/><path class="cls-3" d="M1044.73,1271.88q102.66-1.38,194.55-6.13-117.83,7.45-255.38,8.85c-20.31.21-40.68.29-60.93.29-225,0-442.5-11.82-589.32-22.14-.82-.06-1.61-.11-2.38-.18l-6-.44c-2.2-.15-4.38-.3-6.54-.47-103.26-7.42-167.91-13.78-169.54-14l.45-4.41c.06,0,.21,0,.44,0,3.31.34,23.42,2.29,56.88,5.16,26.13,2.21,60.45,5,101.24,8l6.06.45,9.67.71c143.94,10.26,360.51,22.38,585.85,22.82-12.77.08-25.56.14-38.28.14-39.16,0-78.16-.35-116.68-1,92.79,2.55,191.18,3.67,289.91,2.34" transform="translate(-37.65 -723.12)"/><path class="cls-3" d="M1334.67,728.21q8.34.31,16.86.74-18.9-.27-35.69-.15c-12.12.06-23.32.24-33.4.48-34.91.79-56.41,2.3-56.91,2.33l-.32-4.41v0c.62-.06,35.56-2.46,88.89-2.78h.09c39.31-.24,88.65.64,141.66,4.49-48.07-1.77-90.4-1.48-121.18-.68" transform="translate(-37.65 -723.12)"/><path class="cls-4" d="M1954.49,1036.8c-21.44,83.52-126.94,146.22-313.62,186.33-148.78,32-349.36,49.87-596.11,53.18-28.29.39-56.57.56-84.69.56-249.38,0-486.91-14-626.41-24.12C480.46,1263.07,698,1274.92,923,1274.9c20.25,0,40.61-.1,60.92-.3q137.43-1.38,255.38-8.84-91.77,4.74-194.53,6.12c-98.75,1.33-197.12.2-289.92-2.34,38.52.69,77.51,1,116.68,1,12.71,0,25.52-.07,38.29-.15-225.35-.45-441.92-12.56-585.86-22.82l-9.66-.71-6.06-.45c-62.76-4.75-100-8.27-101.22-8.39l0,.41c-33.46-2.87-53.56-4.82-56.87-5.14,139.26,11.91,448.57,34.7,761.18,32.66,246.46-1.59,446.73-18.08,595.2-49,184.91-38.51,289.28-99.5,310.24-181.24,16.8-65.48,6.15-121.46-31.57-166.43-74.55-88.83-243.35-120.7-371.83-131.79-139.5-12-262.88-2.81-264.13-2.71l-.32-4.44c.59-.06,30.12-2.25,76.35-3.14l.33,4.41c.5,0,22-1.54,56.91-2.33l.08,1.12c.39,0,12.57-.86,33.32-1.6,11.17-.06,23.09,0,35.68.15-5.68-.3-11.29-.53-16.84-.74,30.76-.8,73.1-1.09,121.16.68-53-3.84-102.33-4.73-141.66-4.49,45.8-1.72,135.4-3.14,232.83,5.85,129.36,11.94,299.4,45.14,375,135.72,38.73,46.41,49.66,103.91,32.52,170.83" transform="translate(-37.65 -723.12)"/><path class="cls-3" d="M1044.73,1271.88q102.66-1.38,194.55-6.13-117.83,7.45-255.38,8.85c-20.31.21-40.68.29-60.93.29-225,0-442.5-11.82-589.32-22.14-.82-.06-1.61-.11-2.38-.18l-6-.44c-2.2-.15-4.38-.3-6.54-.47-69.35-5.15-110.85-9.08-112.16-9.2v-.06l.39-3.92,0-.42c1.21.12,38.46,3.63,101.21,8.39l6.06.45,9.67.71c100,7.39,255.36,17.14,430.59,21.93h.3c92.79,2.55,191.18,3.67,289.91,2.34" transform="translate(-37.65 -723.12)"/><path class="cls-3" d="M1455.85,728.89c-48.07-1.77-90.4-1.48-121.18-.68-6.88.18-13.18.38-18.83.59-20.75.74-32.93,1.57-33.31,1.6l-.09-1.12-.15-2.34-.06-.94c.36,0,12-.84,31.87-1.6h.09c39.31-.24,88.65.65,141.66,4.49" transform="translate(-37.65 -723.12)"/><path class="cls-5" d="M267.27,992.2h-178a51.47,51.47,0,0,1-51.43-51.44v-60.3A51.47,51.47,0,0,1,89.29,829h178v42.58H80.42v78H267.27Z" transform="translate(-37.65 -723.12)"/></g><path class="cls-5" d="M324,992.21H281.44V829H324Zm0-180.93H281.44V768.71H324Z" transform="translate(-37.65 -723.12)"/><g class="cls-2"><path class="cls-5" d="M572.34,992.2h-178a51.47,51.47,0,0,1-51.43-51.44v-172h42.56V829H572.34v42.58H385.49v78H572.34Z" transform="translate(-37.65 -723.12)"/><path class="cls-5" d="M820.65,1001.07a51.48,51.48,0,0,1-51.44,51.44h-178v-42.57H778.08V992.2H642.68a51.48,51.48,0,0,1-51.44-51.44V829h42.57V949.63H778.08V829h42.57Z" transform="translate(-37.65 -723.12)"/><path class="cls-5" d="M1109.17,992.2H973.77a51.48,51.48,0,0,1-51.44-51.44V829H964.9V949.63h144.27Z" transform="translate(-37.65 -723.12)"/></g><path class="cls-5" d="M1165.91,992.21h-42.56V829h42.56Zm0-180.93h-42.56V768.71h42.56Z" transform="translate(-37.65 -723.12)"/><g class="cls-2"><path class="cls-5" d="M1414.24,949.63H1227.4v102.88h-42.57V880.45A51.47,51.47,0,0,1,1236.27,829h178v42.56H1227.4v35.49h186.84Z" transform="translate(-37.65 -723.12)"/><path class="cls-5" d="M1615.26,871.59H1471v17.73h144.27Zm42.57,120.61h-178a51.47,51.47,0,0,1-51.43-51.44v-60.3A51.47,51.47,0,0,1,1479.85,829h126.54a51.48,51.48,0,0,1,51.44,51.45v51.43H1471v17.74h186.85Z" transform="translate(-37.65 -723.12)"/><path class="cls-5" d="M118.79,1150.66H96l-38.94-19.85a11.74,11.74,0,0,1,0-20.94l38.07-19.41H118l-58.89,29.89Zm-70.67,0H37.65v-60.21H48.12Z" transform="translate(-37.65 -723.12)"/><path class="cls-5" d="M188.94,1100.93H130.48v39.26h58.46Zm10.47,33.37A16.35,16.35,0,0,1,183,1150.67H136.37A16.35,16.35,0,0,1,120,1134.3v-27.49a16.33,16.33,0,0,1,16.37-16.35H183a16.33,16.33,0,0,1,16.37,16.35Z" transform="translate(-37.65 -723.12)"/><path class="cls-5" d="M291,1150.66H280.57v-49.74H222.11v49.74H211.63v-60.21h63A16.35,16.35,0,0,1,291,1106.82Z" transform="translate(-37.65 -723.12)"/><path class="cls-5" d="M382.67,1132.34H313.74v40.57H303.26v-66.09a16.35,16.35,0,0,1,16.36-16.37h63.05v10.47H313.74v20.95h68.93Z" transform="translate(-37.65 -723.12)"/><path class="cls-5" d="M460.77,1100.92H402.31v14.4h58.46Zm10.47,49.74h-63a16.33,16.33,0,0,1-16.36-16.36v-27.48a16.35,16.35,0,0,1,16.36-16.37h46.68a16.35,16.35,0,0,1,16.36,16.37v19H402.31v14.39h68.93Z" transform="translate(-37.65 -723.12)"/><path class="cls-5" d="M562.87,1120.56H552.4v-19.64H493.94v49.74H483.46v-60.21h63.05a16.35,16.35,0,0,1,16.36,16.37Z" transform="translate(-37.65 -723.12)"/><path class="cls-5" d="M641,1100.92H582.52v14.4H641Zm10.47,49.74H588.4A16.33,16.33,0,0,1,572,1134.3v-27.48a16.35,16.35,0,0,1,16.36-16.37h46.68a16.36,16.36,0,0,1,16.37,16.37v19H582.52v14.39h68.93Z" transform="translate(-37.65 -723.12)"/><path class="cls-5" d="M743.07,1150.66H732.61v-49.74H674.15v49.74H663.67v-60.21h63a16.35,16.35,0,0,1,16.36,16.37Z" transform="translate(-37.65 -723.12)"/><path class="cls-5" d="M834.49,1134.3a16.35,16.35,0,0,1-16.37,16.37h-63v-10.48H824v-14.4H768.61a16.33,16.33,0,0,1-16.36-16.35v-2.63a16.33,16.33,0,0,1,16.36-16.35h63v10.47H762.72v14.39h55.4a16.35,16.35,0,0,1,16.37,16.37Z" transform="translate(-37.65 -723.12)"/><path class="cls-5" d="M943.13,1100.93H884.68v39.26h58.45Zm10.47,33.37a16.34,16.34,0,0,1-16.36,16.37H890.56a16.34,16.34,0,0,1-16.36-16.37v-27.49a16.33,16.33,0,0,1,16.36-16.35h46.68a16.33,16.33,0,0,1,16.36,16.35Z" transform="translate(-37.65 -723.12)"/><path class="cls-5" d="M1045.23,1150.66h-63a16.33,16.33,0,0,1-16.36-16.36v-27.48a16.35,16.35,0,0,1,16.36-16.37h63v10.47H976.31v39.27h68.92Z" transform="translate(-37.65 -723.12)"/><path class="cls-5" d="M1133.81,1150.66h-10.47v-49.74h-58.46v49.74h-10.47V1068.2h10.47v22.25h52.57a16.34,16.34,0,0,1,16.36,16.37Z" transform="translate(-37.65 -723.12)"/><path class="cls-5" d="M1293.5,1150.66H1283v-49.74h-42.76v49.74h-10.46v-49.74h-42.76v49.74h-10.46v-60.21h100.55a16.34,16.34,0,0,1,16.36,16.37Z" transform="translate(-37.65 -723.12)"/><path class="cls-5" d="M1362.12,1083.91h-10.47v-13.09h10.47Zm-22.68,0H1329v-13.09h10.47Zm35.23,17h-58.46v39.26h58.46Zm10.46,33.37a16.34,16.34,0,0,1-16.36,16.37h-46.68a16.33,16.33,0,0,1-16.35-16.37v-27.49a16.32,16.32,0,0,1,16.35-16.35h46.68a16.33,16.33,0,0,1,16.36,16.35Z" transform="translate(-37.65 -723.12)"/><path class="cls-5" d="M1476.76,1150.66h-63a16.33,16.33,0,0,1-16.35-16.36v-66.1h10.47v22.25h68.92v10.47h-68.92v39.27h68.92Z" transform="translate(-37.65 -723.12)"/><path class="cls-5" d="M1554.87,1100.92h-58.46v14.4h58.46Zm10.47,49.74h-63a16.33,16.33,0,0,1-16.36-16.36v-27.48a16.35,16.35,0,0,1,16.36-16.37H1549a16.34,16.34,0,0,1,16.36,16.37v19h-68.93v14.39h68.93Z" transform="translate(-37.65 -723.12)"/><path class="cls-5" d="M1657,1150.66H1646.5v-49.74H1588v49.74h-10.47v-60.21h63a16.35,16.35,0,0,1,16.37,16.37Z" transform="translate(-37.65 -723.12)"/></g></svg>